<mxfile host="app.diagrams.net" modified="2023-03-20T02:57:33.366Z" agent="5.0 (Windows NT 10.0; Win64; x64) AppleWebKit/537.36 (KHTML, like Gecko) Chrome/111.0.0.0 Safari/537.36 Edg/111.0.1661.44" etag="Gc1JxBKgjN3UCq-kGp1M" version="21.0.8" type="github">
  <diagram name="Page-1" id="97916047-d0de-89f5-080d-49f4d83e522f">
    <mxGraphModel dx="1434" dy="756" grid="1" gridSize="10" guides="1" tooltips="1" connect="1" arrows="1" fold="1" page="1" pageScale="1.5" pageWidth="1169" pageHeight="827" background="none" math="0" shadow="0">
      <root>
        <mxCell id="0" />
        <mxCell id="1" parent="0" />
        <mxCell id="3" value="视频安防监控系统" style="rounded=1;fillColor=#10739E;strokeColor=none;shadow=1;gradientColor=none;fontStyle=1;fontColor=#FFFFFF;fontSize=14;" parent="1" vertex="1">
          <mxGeometry x="662" y="340" width="220" height="60" as="geometry" />
        </mxCell>
        <mxCell id="4" value="硬件设备" style="rounded=1;fillColor=#10739E;strokeColor=none;shadow=1;gradientColor=none;fontStyle=1;fontColor=#FFFFFF;fontSize=14;" parent="1" vertex="1">
          <mxGeometry x="250" y="455.5" width="200" height="60" as="geometry" />
        </mxCell>
        <mxCell id="5" value="软件系统" style="rounded=1;fillColor=#10739E;strokeColor=none;shadow=1;gradientColor=none;fontStyle=1;fontColor=#FFFFFF;fontSize=14;" parent="1" vertex="1">
          <mxGeometry x="542" y="455.5" width="200" height="60" as="geometry" />
        </mxCell>
        <mxCell id="6" value="数据库" style="rounded=1;fillColor=#10739E;strokeColor=none;shadow=1;gradientColor=none;fontStyle=1;fontColor=#FFFFFF;fontSize=14;" parent="1" vertex="1">
          <mxGeometry x="820" y="455.5" width="200" height="60" as="geometry" />
        </mxCell>
        <mxCell id="8" value="视频采集模块" style="rounded=1;fillColor=#10739E;strokeColor=none;shadow=1;gradientColor=none;fontStyle=1;fontColor=#FFFFFF;fontSize=14;direction=south;whiteSpace=wrap;" parent="1" vertex="1">
          <mxGeometry x="500" y="620" width="60" height="200" as="geometry" />
        </mxCell>
        <mxCell id="30" value="" style="edgeStyle=elbowEdgeStyle;elbow=vertical;strokeWidth=4;endArrow=block;endFill=1;fontStyle=1;strokeColor=#23445D;" parent="1" source="3" target="5" edge="1">
          <mxGeometry x="22" y="165.5" width="100" height="100" as="geometry">
            <mxPoint x="22" y="265.5" as="sourcePoint" />
            <mxPoint x="122" y="165.5" as="targetPoint" />
          </mxGeometry>
        </mxCell>
        <mxCell id="31" value="" style="edgeStyle=elbowEdgeStyle;elbow=vertical;strokeWidth=4;endArrow=block;endFill=1;fontStyle=1;strokeColor=#23445D;" parent="1" source="3" target="4" edge="1">
          <mxGeometry x="22" y="165.5" width="100" height="100" as="geometry">
            <mxPoint x="22" y="265.5" as="sourcePoint" />
            <mxPoint x="122" y="165.5" as="targetPoint" />
          </mxGeometry>
        </mxCell>
        <mxCell id="32" value="" style="edgeStyle=elbowEdgeStyle;elbow=vertical;strokeWidth=4;endArrow=block;endFill=1;fontStyle=1;strokeColor=#23445D;" parent="1" source="3" target="6" edge="1">
          <mxGeometry x="22" y="165.5" width="100" height="100" as="geometry">
            <mxPoint x="22" y="265.5" as="sourcePoint" />
            <mxPoint x="122" y="165.5" as="targetPoint" />
          </mxGeometry>
        </mxCell>
        <mxCell id="6k0MO4jCzs8xXy13N70B-55" value="网络架构" style="rounded=1;fillColor=#10739E;strokeColor=none;shadow=1;gradientColor=none;fontStyle=1;fontColor=#FFFFFF;fontSize=14;" vertex="1" parent="1">
          <mxGeometry x="1100" y="455.5" width="200" height="60" as="geometry" />
        </mxCell>
        <mxCell id="6k0MO4jCzs8xXy13N70B-57" value="" style="edgeStyle=elbowEdgeStyle;elbow=vertical;strokeWidth=4;endArrow=block;endFill=1;fontStyle=1;strokeColor=#23445D;exitX=0.5;exitY=1;exitDx=0;exitDy=0;" edge="1" parent="1" source="3">
          <mxGeometry x="300" y="165.5" width="100" height="100" as="geometry">
            <mxPoint x="1050" y="400" as="sourcePoint" />
            <mxPoint x="1198" y="456" as="targetPoint" />
          </mxGeometry>
        </mxCell>
        <mxCell id="6k0MO4jCzs8xXy13N70B-59" value="" style="edgeStyle=elbowEdgeStyle;elbow=vertical;strokeWidth=4;endArrow=block;endFill=1;fontStyle=1;strokeColor=#23445D;exitX=0.5;exitY=1;exitDx=0;exitDy=0;entryX=0;entryY=0.5;entryDx=0;entryDy=0;" edge="1" parent="1" source="5" target="8">
          <mxGeometry y="389.5" width="100" height="100" as="geometry">
            <mxPoint x="750" y="624" as="sourcePoint" />
            <mxPoint x="380" y="680" as="targetPoint" />
            <Array as="points" />
          </mxGeometry>
        </mxCell>
        <mxCell id="6k0MO4jCzs8xXy13N70B-62" value="RTSP服务器模块" style="rounded=1;fillColor=#10739E;strokeColor=none;shadow=1;gradientColor=none;fontStyle=1;fontColor=#FFFFFF;fontSize=14;direction=south;whiteSpace=wrap;" vertex="1" parent="1">
          <mxGeometry x="1100" y="620" width="60" height="200" as="geometry" />
        </mxCell>
        <mxCell id="6k0MO4jCzs8xXy13N70B-63" value="网络模块" style="rounded=1;fillColor=#10739E;strokeColor=none;shadow=1;gradientColor=none;fontStyle=1;fontColor=#FFFFFF;fontSize=14;direction=south;whiteSpace=wrap;" vertex="1" parent="1">
          <mxGeometry x="1250" y="620" width="60" height="200" as="geometry" />
        </mxCell>
        <mxCell id="6k0MO4jCzs8xXy13N70B-64" value="视频编码模块" style="rounded=1;fillColor=#10739E;strokeColor=none;shadow=1;gradientColor=none;fontStyle=1;fontColor=#FFFFFF;fontSize=14;direction=south;whiteSpace=wrap;" vertex="1" parent="1">
          <mxGeometry x="612" y="620" width="60" height="200" as="geometry" />
        </mxCell>
        <mxCell id="6k0MO4jCzs8xXy13N70B-65" value="客户端模块" style="rounded=1;fillColor=#10739E;strokeColor=none;shadow=1;gradientColor=none;fontStyle=1;fontColor=#FFFFFF;fontSize=14;direction=south;whiteSpace=wrap;" vertex="1" parent="1">
          <mxGeometry x="720" y="620" width="60" height="200" as="geometry" />
        </mxCell>
        <mxCell id="6k0MO4jCzs8xXy13N70B-67" value="" style="edgeStyle=elbowEdgeStyle;elbow=vertical;strokeWidth=4;endArrow=block;endFill=1;fontStyle=1;strokeColor=#23445D;exitX=0.5;exitY=1;exitDx=0;exitDy=0;entryX=0;entryY=0.5;entryDx=0;entryDy=0;" edge="1" parent="1" target="6k0MO4jCzs8xXy13N70B-64">
          <mxGeometry x="240" y="389.5" width="100" height="100" as="geometry">
            <mxPoint x="642" y="516" as="sourcePoint" />
            <mxPoint x="570" y="620" as="targetPoint" />
            <Array as="points" />
          </mxGeometry>
        </mxCell>
        <mxCell id="6k0MO4jCzs8xXy13N70B-69" value="视频索引" style="rounded=1;fillColor=#10739E;strokeColor=none;shadow=1;gradientColor=none;fontStyle=1;fontColor=#FFFFFF;fontSize=14;direction=south;whiteSpace=wrap;" vertex="1" parent="1">
          <mxGeometry x="830" y="620" width="60" height="200" as="geometry" />
        </mxCell>
        <mxCell id="6k0MO4jCzs8xXy13N70B-70" value="用户数据" style="rounded=1;fillColor=#10739E;strokeColor=none;shadow=1;gradientColor=none;fontStyle=1;fontColor=#FFFFFF;fontSize=14;direction=south;whiteSpace=wrap;" vertex="1" parent="1">
          <mxGeometry x="960" y="620" width="60" height="200" as="geometry" />
        </mxCell>
        <mxCell id="6k0MO4jCzs8xXy13N70B-71" value="" style="edgeStyle=elbowEdgeStyle;elbow=vertical;strokeWidth=4;endArrow=block;endFill=1;fontStyle=1;strokeColor=#23445D;exitX=0.5;exitY=1;exitDx=0;exitDy=0;entryX=0;entryY=0.5;entryDx=0;entryDy=0;" edge="1" parent="1" source="5" target="6k0MO4jCzs8xXy13N70B-65">
          <mxGeometry x="340" y="389.5" width="100" height="100" as="geometry">
            <mxPoint x="742" y="516" as="sourcePoint" />
            <mxPoint x="640" y="620" as="targetPoint" />
            <Array as="points" />
          </mxGeometry>
        </mxCell>
        <mxCell id="6k0MO4jCzs8xXy13N70B-72" value="" style="edgeStyle=elbowEdgeStyle;elbow=vertical;strokeWidth=4;endArrow=block;endFill=1;fontStyle=1;strokeColor=#23445D;exitX=0.5;exitY=1;exitDx=0;exitDy=0;entryX=0;entryY=0.5;entryDx=0;entryDy=0;" edge="1" parent="1" target="6k0MO4jCzs8xXy13N70B-69">
          <mxGeometry x="520" y="389" width="100" height="100" as="geometry">
            <mxPoint x="922" y="515.5" as="sourcePoint" />
            <mxPoint x="820" y="620" as="targetPoint" />
            <Array as="points" />
          </mxGeometry>
        </mxCell>
        <mxCell id="6k0MO4jCzs8xXy13N70B-73" value="" style="edgeStyle=elbowEdgeStyle;elbow=vertical;strokeWidth=4;endArrow=block;endFill=1;fontStyle=1;strokeColor=#23445D;exitX=0.5;exitY=1;exitDx=0;exitDy=0;entryX=0;entryY=0.5;entryDx=0;entryDy=0;" edge="1" parent="1" target="6k0MO4jCzs8xXy13N70B-70">
          <mxGeometry x="680" y="389" width="100" height="100" as="geometry">
            <mxPoint x="922" y="515.5" as="sourcePoint" />
            <mxPoint x="1030" y="619.5" as="targetPoint" />
            <Array as="points" />
          </mxGeometry>
        </mxCell>
        <mxCell id="6k0MO4jCzs8xXy13N70B-75" value="" style="edgeStyle=elbowEdgeStyle;elbow=vertical;strokeWidth=4;endArrow=block;endFill=1;fontStyle=1;strokeColor=#23445D;exitX=0.5;exitY=1;exitDx=0;exitDy=0;entryX=0;entryY=0.5;entryDx=0;entryDy=0;" edge="1" parent="1">
          <mxGeometry x="798" y="389.5" width="100" height="100" as="geometry">
            <mxPoint x="1200" y="516" as="sourcePoint" />
            <mxPoint x="1130" y="620.5" as="targetPoint" />
            <Array as="points" />
          </mxGeometry>
        </mxCell>
        <mxCell id="6k0MO4jCzs8xXy13N70B-76" value="" style="edgeStyle=elbowEdgeStyle;elbow=vertical;strokeWidth=4;endArrow=block;endFill=1;fontStyle=1;strokeColor=#23445D;exitX=0.5;exitY=1;exitDx=0;exitDy=0;entryX=0;entryY=0.5;entryDx=0;entryDy=0;" edge="1" parent="1">
          <mxGeometry x="958" y="389.5" width="100" height="100" as="geometry">
            <mxPoint x="1200" y="516" as="sourcePoint" />
            <mxPoint x="1278" y="620.5" as="targetPoint" />
            <Array as="points" />
          </mxGeometry>
        </mxCell>
        <mxCell id="6k0MO4jCzs8xXy13N70B-77" value="摄像头" style="rounded=1;fillColor=#10739E;strokeColor=none;shadow=1;gradientColor=none;fontStyle=1;fontColor=#FFFFFF;fontSize=14;direction=south;whiteSpace=wrap;" vertex="1" parent="1">
          <mxGeometry x="250" y="620" width="60" height="200" as="geometry" />
        </mxCell>
        <mxCell id="6k0MO4jCzs8xXy13N70B-78" value="视频存储设备" style="rounded=1;fillColor=#10739E;strokeColor=none;shadow=1;gradientColor=none;fontStyle=1;fontColor=#FFFFFF;fontSize=14;direction=south;whiteSpace=wrap;" vertex="1" parent="1">
          <mxGeometry x="400" y="620" width="60" height="200" as="geometry" />
        </mxCell>
        <mxCell id="6k0MO4jCzs8xXy13N70B-79" value="" style="edgeStyle=elbowEdgeStyle;elbow=vertical;strokeWidth=4;endArrow=block;endFill=1;fontStyle=1;strokeColor=#23445D;exitX=0.5;exitY=1;exitDx=0;exitDy=0;entryX=0;entryY=0.5;entryDx=0;entryDy=0;" edge="1" parent="1">
          <mxGeometry x="-52" y="389" width="100" height="100" as="geometry">
            <mxPoint x="350" y="515.5" as="sourcePoint" />
            <mxPoint x="280" y="620" as="targetPoint" />
            <Array as="points" />
          </mxGeometry>
        </mxCell>
        <mxCell id="6k0MO4jCzs8xXy13N70B-80" value="" style="edgeStyle=elbowEdgeStyle;elbow=vertical;strokeWidth=4;endArrow=block;endFill=1;fontStyle=1;strokeColor=#23445D;exitX=0.5;exitY=1;exitDx=0;exitDy=0;entryX=0;entryY=0.5;entryDx=0;entryDy=0;" edge="1" parent="1">
          <mxGeometry x="108" y="389" width="100" height="100" as="geometry">
            <mxPoint x="350" y="515.5" as="sourcePoint" />
            <mxPoint x="428" y="620" as="targetPoint" />
            <Array as="points" />
          </mxGeometry>
        </mxCell>
      </root>
    </mxGraphModel>
  </diagram>
</mxfile>
